<svg xmlns="http://www.w3.org/2000/svg" width="1em" height="1em" viewBox="0 0 256 256"><path fill="currentColor" d="M71.7 97.2L34.8 128l36.9 30.8a12 12 0 1 1-15.4 18.4l-48-40a12 12 0 0 1 0-18.4l48-40a12 12 0 0 1 15.4 18.4Zm176 21.6l-48-40a12 12 0 0 0-15.4 18.4l37 30.8l-37 30.8a11.9 11.9 0 0 0-1.5 16.9a12.2 12.2 0 0 0 9.2 4.3a12 12 0 0 0 7.7-2.8l48-40a12 12 0 0 0 0-18.4Zm-83.6-90.1a12.1 12.1 0 0 0-15.4 7.2l-64 176a12.1 12.1 0 0 0 7.2 15.4a11.8 11.8 0 0 0 4.1.7a12 12 0 0 0 11.3-7.9l64-176a12.1 12.1 0 0 0-7.2-15.4Z"/></svg>